<?xml version="1.0" encoding="UTF-8" standalone="no"?>
<!DOCTYPE svg PUBLIC "-//W3C//DTD SVG 1.1//EN"
 "http://www.w3.org/Graphics/SVG/1.1/DTD/svg11.dtd">
<!-- Generated by graphviz version 2.36.0 (20140111.2315)
 -->
<!-- Title: G Pages: 1 -->
<svg width="1479pt" height="265pt"
 viewBox="0.00 0.00 1479.20 265.30" xmlns="http://www.w3.org/2000/svg" xmlns:xlink="http://www.w3.org/1999/xlink">
<g id="graph0" class="graph" transform="scale(1 1) rotate(0) translate(21.6 243.703)">
<title>G</title>
<polygon fill="#111111" stroke="none" points="-21.6,21.6 -21.6,-243.703 1457.6,-243.703 1457.6,21.6 -21.6,21.6"/>
<!-- actions/_common&#45;action&#45;add&#45;file.js -->
<g id="node1" class="node"><title>actions/_common&#45;action&#45;add&#45;file.js</title>
<path fill="none" stroke="#c6c5fe" d="M983.833,-195.5C983.833,-195.5 766.167,-195.5 766.167,-195.5 762.333,-195.5 758.5,-191.667 758.5,-187.833 758.5,-187.833 758.5,-180.167 758.5,-180.167 758.5,-176.333 762.333,-172.5 766.167,-172.5 766.167,-172.5 983.833,-172.5 983.833,-172.5 987.667,-172.5 991.5,-176.333 991.5,-180.167 991.5,-180.167 991.5,-187.833 991.5,-187.833 991.5,-191.667 987.667,-195.5 983.833,-195.5"/>
<text text-anchor="middle" x="875" y="-180.3" font-family="Arial" font-size="14.00" fill="#c6c5fe">actions/_common&#45;action&#45;add&#45;file.js</text>
</g>
<!-- actions/_common&#45;action&#45;utils.js -->
<g id="node2" class="node"><title>actions/_common&#45;action&#45;utils.js</title>
<path fill="none" stroke="#c6c5fe" d="M1256.33,-116.5C1256.33,-116.5 1059.67,-116.5 1059.67,-116.5 1055.83,-116.5 1052,-112.667 1052,-108.833 1052,-108.833 1052,-101.167 1052,-101.167 1052,-97.3333 1055.83,-93.5 1059.67,-93.5 1059.67,-93.5 1256.33,-93.5 1256.33,-93.5 1260.17,-93.5 1264,-97.3333 1264,-101.167 1264,-101.167 1264,-108.833 1264,-108.833 1264,-112.667 1260.17,-116.5 1256.33,-116.5"/>
<text text-anchor="middle" x="1158" y="-101.3" font-family="Arial" font-size="14.00" fill="#c6c5fe">actions/_common&#45;action&#45;utils.js</text>
</g>
<!-- actions/_common&#45;action&#45;add&#45;file.js&#45;&gt;actions/_common&#45;action&#45;utils.js -->
<g id="edge1" class="edge"><title>actions/_common&#45;action&#45;add&#45;file.js&#45;&gt;actions/_common&#45;action&#45;utils.js</title>
<path fill="none" stroke="#757575" d="M950.305,-172.711C971.688,-168.787 994.924,-163.869 1016,-158 1052.85,-147.74 1093.61,-131.904 1121.79,-120.212"/>
<polygon fill="#757575" stroke="#757575" points="1123.34,-123.359 1131.21,-116.266 1120.63,-116.903 1123.34,-123.359"/>
</g>
<!-- fs&#45;promise&#45;proxy.js -->
<g id="node3" class="node"><title>fs&#45;promise&#45;proxy.js</title>
<path fill="none" stroke="#cfffac" d="M1427.83,-76.5C1427.83,-76.5 1308.17,-76.5 1308.17,-76.5 1304.33,-76.5 1300.5,-72.6667 1300.5,-68.8333 1300.5,-68.8333 1300.5,-61.1667 1300.5,-61.1667 1300.5,-57.3333 1304.33,-53.5 1308.17,-53.5 1308.17,-53.5 1427.83,-53.5 1427.83,-53.5 1431.67,-53.5 1435.5,-57.3333 1435.5,-61.1667 1435.5,-61.1667 1435.5,-68.8333 1435.5,-68.8333 1435.5,-72.6667 1431.67,-76.5 1427.83,-76.5"/>
<text text-anchor="middle" x="1368" y="-61.3" font-family="Arial" font-size="14.00" fill="#cfffac">fs&#45;promise&#45;proxy.js</text>
</g>
<!-- actions/_common&#45;action&#45;add&#45;file.js&#45;&gt;fs&#45;promise&#45;proxy.js -->
<g id="edge2" class="edge"><title>actions/_common&#45;action&#45;add&#45;file.js&#45;&gt;fs&#45;promise&#45;proxy.js</title>
<path fill="none" stroke="#757575" d="M991.651,-177.815C1070.28,-170.879 1175.65,-156.171 1264,-125 1293.24,-114.683 1323.53,-95.8906 1343.63,-82.077"/>
<polygon fill="#757575" stroke="#757575" points="1345.67,-84.9223 1351.85,-76.3152 1341.65,-79.1909 1345.67,-84.9223"/>
</g>
<!-- actions/_common&#45;action&#45;utils.js&#45;&gt;fs&#45;promise&#45;proxy.js -->
<g id="edge3" class="edge"><title>actions/_common&#45;action&#45;utils.js&#45;&gt;fs&#45;promise&#45;proxy.js</title>
<path fill="none" stroke="#757575" d="M1217.77,-93.698C1242.91,-88.8634 1272.43,-83.1868 1298.55,-78.164"/>
<polygon fill="#757575" stroke="#757575" points="1299.22,-81.5997 1308.37,-76.2741 1297.89,-74.7256 1299.22,-81.5997"/>
</g>
<!-- actions/_common&#45;action&#45;interface&#45;check.js -->
<g id="node4" class="node"><title>actions/_common&#45;action&#45;interface&#45;check.js</title>
<path fill="none" stroke="#cfffac" d="M1008.33,-115.5C1008.33,-115.5 741.667,-115.5 741.667,-115.5 737.833,-115.5 734,-111.667 734,-107.833 734,-107.833 734,-100.167 734,-100.167 734,-96.3333 737.833,-92.5 741.667,-92.5 741.667,-92.5 1008.33,-92.5 1008.33,-92.5 1012.17,-92.5 1016,-96.3333 1016,-100.167 1016,-100.167 1016,-107.833 1016,-107.833 1016,-111.667 1012.17,-115.5 1008.33,-115.5"/>
<text text-anchor="middle" x="875" y="-100.3" font-family="Arial" font-size="14.00" fill="#cfffac">actions/_common&#45;action&#45;interface&#45;check.js</text>
</g>
<!-- actions/add.js -->
<g id="node5" class="node"><title>actions/add.js</title>
<path fill="none" stroke="#c6c5fe" d="M673.333,-140.5C673.333,-140.5 586.667,-140.5 586.667,-140.5 582.833,-140.5 579,-136.667 579,-132.833 579,-132.833 579,-125.167 579,-125.167 579,-121.333 582.833,-117.5 586.667,-117.5 586.667,-117.5 673.333,-117.5 673.333,-117.5 677.167,-117.5 681,-121.333 681,-125.167 681,-125.167 681,-132.833 681,-132.833 681,-136.667 677.167,-140.5 673.333,-140.5"/>
<text text-anchor="middle" x="630" y="-125.3" font-family="Arial" font-size="14.00" fill="#c6c5fe">actions/add.js</text>
</g>
<!-- actions/add.js&#45;&gt;actions/_common&#45;action&#45;add&#45;file.js -->
<g id="edge4" class="edge"><title>actions/add.js&#45;&gt;actions/_common&#45;action&#45;add&#45;file.js</title>
<path fill="none" stroke="#757575" d="M667.976,-140.289C687.501,-146.027 711.928,-152.854 734,-158 754.173,-162.703 776.138,-167.112 796.561,-170.917"/>
<polygon fill="#757575" stroke="#757575" points="795.981,-174.369 806.449,-172.735 797.247,-167.484 795.981,-174.369"/>
</g>
<!-- actions/add.js&#45;&gt;actions/_common&#45;action&#45;utils.js -->
<g id="edge6" class="edge"><title>actions/add.js&#45;&gt;actions/_common&#45;action&#45;utils.js</title>
<path fill="none" stroke="#757575" d="M681.227,-130.281C754.806,-131.719 896.169,-132.819 1016,-124 1035.4,-122.572 1056.22,-120.224 1075.73,-117.657"/>
<polygon fill="#757575" stroke="#757575" points="1076.36,-121.104 1085.81,-116.299 1075.43,-114.167 1076.36,-121.104"/>
</g>
<!-- actions/add.js&#45;&gt;actions/_common&#45;action&#45;interface&#45;check.js -->
<g id="edge5" class="edge"><title>actions/add.js&#45;&gt;actions/_common&#45;action&#45;interface&#45;check.js</title>
<path fill="none" stroke="#757575" d="M681.055,-123.85C702.458,-121.648 728.449,-118.974 754.329,-116.312"/>
<polygon fill="#757575" stroke="#757575" points="755.029,-119.758 764.618,-115.253 754.313,-112.795 755.029,-119.758"/>
</g>
<!-- actions/addMany.js -->
<g id="node6" class="node"><title>actions/addMany.js</title>
<path fill="none" stroke="#c6c5fe" d="M690.333,-190.5C690.333,-190.5 569.667,-190.5 569.667,-190.5 565.833,-190.5 562,-186.667 562,-182.833 562,-182.833 562,-175.167 562,-175.167 562,-171.333 565.833,-167.5 569.667,-167.5 569.667,-167.5 690.333,-167.5 690.333,-167.5 694.167,-167.5 698,-171.333 698,-175.167 698,-175.167 698,-182.833 698,-182.833 698,-186.667 694.167,-190.5 690.333,-190.5"/>
<text text-anchor="middle" x="630" y="-175.3" font-family="Arial" font-size="14.00" fill="#c6c5fe">actions/addMany.js</text>
</g>
<!-- actions/addMany.js&#45;&gt;actions/_common&#45;action&#45;add&#45;file.js -->
<g id="edge7" class="edge"><title>actions/addMany.js&#45;&gt;actions/_common&#45;action&#45;add&#45;file.js</title>
<path fill="none" stroke="#757575" d="M698.044,-180.38C713.663,-180.701 730.795,-181.053 748.048,-181.408"/>
<polygon fill="#757575" stroke="#757575" points="748.139,-184.911 758.209,-181.617 748.283,-177.912 748.139,-184.911"/>
</g>
<!-- actions/addMany.js&#45;&gt;actions/_common&#45;action&#45;utils.js -->
<g id="edge9" class="edge"><title>actions/addMany.js&#45;&gt;actions/_common&#45;action&#45;utils.js</title>
<path fill="none" stroke="#757575" d="M668.712,-190.322C738.933,-209.487 893.693,-242.65 1016,-204 1065.93,-188.223 1113.5,-147.731 1138.6,-123.702"/>
<polygon fill="#757575" stroke="#757575" points="1141.23,-126.025 1145.93,-116.531 1136.33,-121.021 1141.23,-126.025"/>
</g>
<!-- actions/addMany.js&#45;&gt;actions/_common&#45;action&#45;interface&#45;check.js -->
<g id="edge8" class="edge"><title>actions/addMany.js&#45;&gt;actions/_common&#45;action&#45;interface&#45;check.js</title>
<path fill="none" stroke="#757575" d="M667.643,-167.691C710.382,-154.5 781.1,-132.673 827.627,-118.313"/>
<polygon fill="#757575" stroke="#757575" points="828.934,-121.572 837.457,-115.279 826.87,-114.884 828.934,-121.572"/>
</g>
<!-- actions/append.js -->
<g id="node7" class="node"><title>actions/append.js</title>
<path fill="none" stroke="#c6c5fe" d="M684.833,-22.5C684.833,-22.5 575.167,-22.5 575.167,-22.5 571.333,-22.5 567.5,-18.6667 567.5,-14.8333 567.5,-14.8333 567.5,-7.16667 567.5,-7.16667 567.5,-3.33333 571.333,0.5 575.167,0.5 575.167,0.5 684.833,0.5 684.833,0.5 688.667,0.5 692.5,-3.33333 692.5,-7.16667 692.5,-7.16667 692.5,-14.8333 692.5,-14.8333 692.5,-18.6667 688.667,-22.5 684.833,-22.5"/>
<text text-anchor="middle" x="630" y="-7.3" font-family="Arial" font-size="14.00" fill="#c6c5fe">actions/append.js</text>
</g>
<!-- actions/append.js&#45;&gt;actions/_common&#45;action&#45;utils.js -->
<g id="edge11" class="edge"><title>actions/append.js&#45;&gt;actions/_common&#45;action&#45;utils.js</title>
<path fill="none" stroke="#757575" d="M692.768,-17.3579C769.168,-25.7868 902.981,-42.398 1016,-66 1048.22,-72.7281 1083.95,-82.6378 1111.38,-90.7842"/>
<polygon fill="#757575" stroke="#757575" points="1110.5,-94.1757 1121.09,-93.6965 1112.51,-87.4708 1110.5,-94.1757"/>
</g>
<!-- actions/append.js&#45;&gt;fs&#45;promise&#45;proxy.js -->
<g id="edge12" class="edge"><title>actions/append.js&#45;&gt;fs&#45;promise&#45;proxy.js</title>
<path fill="none" stroke="#757575" d="M692.776,-10.4669C768.905,-10.2655 902.164,-11.3958 1016,-20 1110.74,-27.1607 1219.1,-42.0912 1290.06,-52.7913"/>
<polygon fill="#757575" stroke="#757575" points="1289.84,-56.2978 1300.25,-54.3379 1290.89,-49.3771 1289.84,-56.2978"/>
</g>
<!-- actions/append.js&#45;&gt;actions/_common&#45;action&#45;interface&#45;check.js -->
<g id="edge10" class="edge"><title>actions/append.js&#45;&gt;actions/_common&#45;action&#45;interface&#45;check.js</title>
<path fill="none" stroke="#757575" d="M660.797,-22.4036C704.547,-39.1478 786.226,-70.4073 834.796,-88.9961"/>
<polygon fill="#757575" stroke="#757575" points="833.75,-92.3431 844.34,-92.6487 836.252,-85.8055 833.75,-92.3431"/>
</g>
<!-- actions/index.js -->
<g id="node8" class="node"><title>actions/index.js</title>
<path fill="none" stroke="#c6c5fe" d="M512.333,-110.5C512.333,-110.5 415.667,-110.5 415.667,-110.5 411.833,-110.5 408,-106.667 408,-102.833 408,-102.833 408,-95.1667 408,-95.1667 408,-91.3333 411.833,-87.5 415.667,-87.5 415.667,-87.5 512.333,-87.5 512.333,-87.5 516.167,-87.5 520,-91.3333 520,-95.1667 520,-95.1667 520,-102.833 520,-102.833 520,-106.667 516.167,-110.5 512.333,-110.5"/>
<text text-anchor="middle" x="464" y="-95.3" font-family="Arial" font-size="14.00" fill="#c6c5fe">actions/index.js</text>
</g>
<!-- actions/index.js&#45;&gt;actions/add.js -->
<g id="edge13" class="edge"><title>actions/index.js&#45;&gt;actions/add.js</title>
<path fill="none" stroke="#757575" d="M520.066,-109.073C535.638,-111.922 552.668,-115.037 568.539,-117.94"/>
<polygon fill="#757575" stroke="#757575" points="568.308,-121.456 578.774,-119.812 569.567,-114.57 568.308,-121.456"/>
</g>
<!-- actions/index.js&#45;&gt;actions/addMany.js -->
<g id="edge14" class="edge"><title>actions/index.js&#45;&gt;actions/addMany.js</title>
<path fill="none" stroke="#757575" d="M486.025,-110.261C505.56,-120.623 535.538,-136.267 562,-149 572.096,-153.858 583.158,-158.917 593.333,-163.466"/>
<polygon fill="#757575" stroke="#757575" points="592.196,-166.79 602.756,-167.648 595.035,-160.392 592.196,-166.79"/>
</g>
<!-- actions/index.js&#45;&gt;actions/append.js -->
<g id="edge15" class="edge"><title>actions/index.js&#45;&gt;actions/append.js</title>
<path fill="none" stroke="#757575" d="M504.639,-87.7072C511.951,-84.9733 519.365,-81.7389 526,-78 544.145,-67.7754 544.806,-59.754 562,-48 572.97,-40.501 585.592,-33.2148 596.903,-27.1195"/>
<polygon fill="#757575" stroke="#757575" points="598.821,-30.0648 606.031,-22.301 595.553,-23.8744 598.821,-30.0648"/>
</g>
<!-- actions/modify.js -->
<g id="node9" class="node"><title>actions/modify.js</title>
<path fill="none" stroke="#c6c5fe" d="M682.333,-80.5C682.333,-80.5 577.667,-80.5 577.667,-80.5 573.833,-80.5 570,-76.6667 570,-72.8333 570,-72.8333 570,-65.1667 570,-65.1667 570,-61.3333 573.833,-57.5 577.667,-57.5 577.667,-57.5 682.333,-57.5 682.333,-57.5 686.167,-57.5 690,-61.3333 690,-65.1667 690,-65.1667 690,-72.8333 690,-72.8333 690,-76.6667 686.167,-80.5 682.333,-80.5"/>
<text text-anchor="middle" x="630" y="-65.3" font-family="Arial" font-size="14.00" fill="#c6c5fe">actions/modify.js</text>
</g>
<!-- actions/index.js&#45;&gt;actions/modify.js -->
<g id="edge16" class="edge"><title>actions/index.js&#45;&gt;actions/modify.js</title>
<path fill="none" stroke="#757575" d="M520.066,-88.927C532.82,-86.5939 546.552,-84.0819 559.825,-81.654"/>
<polygon fill="#757575" stroke="#757575" points="560.654,-85.0605 569.861,-79.8181 559.394,-78.1747 560.654,-85.0605"/>
</g>
<!-- actions/modify.js&#45;&gt;actions/_common&#45;action&#45;utils.js -->
<g id="edge18" class="edge"><title>actions/modify.js&#45;&gt;actions/_common&#45;action&#45;utils.js</title>
<path fill="none" stroke="#757575" d="M690.174,-68.9809C765.881,-69.4544 900.984,-71.9751 1016,-83 1038.56,-85.1628 1063.01,-88.5895 1085.11,-92.1006"/>
<polygon fill="#757575" stroke="#757575" points="1084.65,-95.572 1095.08,-93.7154 1085.77,-88.662 1084.65,-95.572"/>
</g>
<!-- actions/modify.js&#45;&gt;fs&#45;promise&#45;proxy.js -->
<g id="edge19" class="edge"><title>actions/modify.js&#45;&gt;fs&#45;promise&#45;proxy.js</title>
<path fill="none" stroke="#757575" d="M690.091,-66.9995C704.458,-66.5903 719.78,-66.2183 734,-66 934.73,-62.9188 1171.31,-63.7257 1290.36,-64.4408"/>
<polygon fill="#757575" stroke="#757575" points="1290.45,-67.9413 1300.47,-64.503 1290.49,-60.9414 1290.45,-67.9413"/>
</g>
<!-- actions/modify.js&#45;&gt;actions/_common&#45;action&#45;interface&#45;check.js -->
<g id="edge17" class="edge"><title>actions/modify.js&#45;&gt;actions/_common&#45;action&#45;interface&#45;check.js</title>
<path fill="none" stroke="#757575" d="M690.134,-77.5172C718.783,-81.6436 753.779,-86.6843 785.522,-91.2562"/>
<polygon fill="#757575" stroke="#757575" points="785.304,-94.7609 795.701,-92.7224 786.302,-87.8324 785.304,-94.7609"/>
</g>
<!-- baked&#45;in&#45;helpers.js -->
<g id="node10" class="node"><title>baked&#45;in&#45;helpers.js</title>
<path fill="none" stroke="#cfffac" d="M357.833,-48.5C357.833,-48.5 238.167,-48.5 238.167,-48.5 234.333,-48.5 230.5,-44.6667 230.5,-40.8333 230.5,-40.8333 230.5,-33.1667 230.5,-33.1667 230.5,-29.3333 234.333,-25.5 238.167,-25.5 238.167,-25.5 357.833,-25.5 357.833,-25.5 361.667,-25.5 365.5,-29.3333 365.5,-33.1667 365.5,-33.1667 365.5,-40.8333 365.5,-40.8333 365.5,-44.6667 361.667,-48.5 357.833,-48.5"/>
<text text-anchor="middle" x="298" y="-33.3" font-family="Arial" font-size="14.00" fill="#cfffac">baked&#45;in&#45;helpers.js</text>
</g>
<!-- generator&#45;runner.js -->
<g id="node11" class="node"><title>generator&#45;runner.js</title>
<path fill="none" stroke="#c6c5fe" d="M358.333,-89.5C358.333,-89.5 237.667,-89.5 237.667,-89.5 233.833,-89.5 230,-85.6667 230,-81.8333 230,-81.8333 230,-74.1667 230,-74.1667 230,-70.3333 233.833,-66.5 237.667,-66.5 237.667,-66.5 358.333,-66.5 358.333,-66.5 362.167,-66.5 366,-70.3333 366,-74.1667 366,-74.1667 366,-81.8333 366,-81.8333 366,-85.6667 362.167,-89.5 358.333,-89.5"/>
<text text-anchor="middle" x="298" y="-74.3" font-family="Arial" font-size="14.00" fill="#c6c5fe">generator&#45;runner.js</text>
</g>
<!-- generator&#45;runner.js&#45;&gt;actions/index.js -->
<g id="edge20" class="edge"><title>generator&#45;runner.js&#45;&gt;actions/index.js</title>
<path fill="none" stroke="#757575" d="M366.178,-86.6021C376.594,-87.9359 387.34,-89.3119 397.714,-90.6402"/>
<polygon fill="#757575" stroke="#757575" points="397.573,-94.1507 407.937,-91.9492 398.462,-87.2074 397.573,-94.1507"/>
</g>
<!-- prompt&#45;bypass.js -->
<g id="node12" class="node"><title>prompt&#45;bypass.js</title>
<path fill="none" stroke="#cfffac" d="M517.833,-69.5C517.833,-69.5 410.167,-69.5 410.167,-69.5 406.333,-69.5 402.5,-65.6667 402.5,-61.8333 402.5,-61.8333 402.5,-54.1667 402.5,-54.1667 402.5,-50.3333 406.333,-46.5 410.167,-46.5 410.167,-46.5 517.833,-46.5 517.833,-46.5 521.667,-46.5 525.5,-50.3333 525.5,-54.1667 525.5,-54.1667 525.5,-61.8333 525.5,-61.8333 525.5,-65.6667 521.667,-69.5 517.833,-69.5"/>
<text text-anchor="middle" x="464" y="-54.3" font-family="Arial" font-size="14.00" fill="#cfffac">prompt&#45;bypass.js</text>
</g>
<!-- generator&#45;runner.js&#45;&gt;prompt&#45;bypass.js -->
<g id="edge21" class="edge"><title>generator&#45;runner.js&#45;&gt;prompt&#45;bypass.js</title>
<path fill="none" stroke="#757575" d="M366.178,-69.8075C374.762,-68.7608 383.569,-67.6867 392.207,-66.6333"/>
<polygon fill="#757575" stroke="#757575" points="392.744,-70.0939 402.246,-65.409 391.896,-63.1453 392.744,-70.0939"/>
</g>
<!-- index.js -->
<g id="node13" class="node"><title>index.js</title>
<path fill="none" stroke="#c6c5fe" d="M56.3333,-68.5C56.3333,-68.5 7.66667,-68.5 7.66667,-68.5 3.83333,-68.5 0,-64.6667 0,-60.8333 0,-60.8333 0,-53.1667 0,-53.1667 0,-49.3333 3.83333,-45.5 7.66667,-45.5 7.66667,-45.5 56.3333,-45.5 56.3333,-45.5 60.1667,-45.5 64,-49.3333 64,-53.1667 64,-53.1667 64,-60.8333 64,-60.8333 64,-64.6667 60.1667,-68.5 56.3333,-68.5"/>
<text text-anchor="middle" x="32" y="-53.3" font-family="Arial" font-size="14.00" fill="#c6c5fe">index.js</text>
</g>
<!-- node&#45;plop.js -->
<g id="node14" class="node"><title>node&#45;plop.js</title>
<path fill="none" stroke="#c6c5fe" d="M185.833,-68.5C185.833,-68.5 108.167,-68.5 108.167,-68.5 104.333,-68.5 100.5,-64.6667 100.5,-60.8333 100.5,-60.8333 100.5,-53.1667 100.5,-53.1667 100.5,-49.3333 104.333,-45.5 108.167,-45.5 108.167,-45.5 185.833,-45.5 185.833,-45.5 189.667,-45.5 193.5,-49.3333 193.5,-53.1667 193.5,-53.1667 193.5,-60.8333 193.5,-60.8333 193.5,-64.6667 189.667,-68.5 185.833,-68.5"/>
<text text-anchor="middle" x="147" y="-53.3" font-family="Arial" font-size="14.00" fill="#c6c5fe">node&#45;plop.js</text>
</g>
<!-- index.js&#45;&gt;node&#45;plop.js -->
<g id="edge22" class="edge"><title>index.js&#45;&gt;node&#45;plop.js</title>
<path fill="none" stroke="#757575" d="M64.1769,-57C72.2458,-57 81.1834,-57 90.1011,-57"/>
<polygon fill="#757575" stroke="#757575" points="90.1137,-60.5001 100.114,-57 90.1136,-53.5001 90.1137,-60.5001"/>
</g>
<!-- node&#45;plop.js&#45;&gt;baked&#45;in&#45;helpers.js -->
<g id="edge23" class="edge"><title>node&#45;plop.js&#45;&gt;baked&#45;in&#45;helpers.js</title>
<path fill="none" stroke="#757575" d="M193.515,-50.8907C202.062,-49.7433 211.213,-48.5151 220.406,-47.2811"/>
<polygon fill="#757575" stroke="#757575" points="220.926,-50.7427 230.372,-45.9434 219.995,-43.805 220.926,-50.7427"/>
</g>
<!-- node&#45;plop.js&#45;&gt;generator&#45;runner.js -->
<g id="edge24" class="edge"><title>node&#45;plop.js&#45;&gt;generator&#45;runner.js</title>
<path fill="none" stroke="#757575" d="M193.515,-63.4148C201.847,-64.5891 210.752,-65.8443 219.711,-67.107"/>
<polygon fill="#757575" stroke="#757575" points="219.431,-70.602 229.822,-68.5319 220.408,-63.6705 219.431,-70.602"/>
</g>
</g>
</svg>
